<svg width="55" height="24" viewBox="0 0 55 24" fill="none" xmlns="http://www.w3.org/2000/svg">
<path d="M12.3913 4.56906V9.0388H0V4.56906H12.3913ZM2.5959 0H8.84907V17.643C8.84907 18.0155 8.90875 18.3176 9.0281 18.5494C9.15598 18.7729 9.33927 18.9343 9.57797 19.0336C9.81668 19.1247 10.1023 19.1702 10.4347 19.1702C10.6734 19.1702 10.9249 19.1495 11.1892 19.1081C11.462 19.0585 11.6666 19.0171 11.803 18.984L12.7493 23.3668C12.4509 23.4496 12.0289 23.553 11.4833 23.6772C10.9463 23.8013 10.3026 23.88 9.5524 23.9131C8.08608 23.9793 6.82862 23.8138 5.78003 23.4165C4.73997 23.0109 3.94287 22.3818 3.38874 21.5292C2.84313 20.6767 2.57885 19.6048 2.5959 18.3135V0Z" fill="#1F2937"/>
<path d="M32.4839 10.3921L26.7422 10.5411C26.6826 10.1438 26.5206 9.79203 26.2563 9.48577C25.992 9.17124 25.6468 8.92706 25.2205 8.75323C24.8028 8.57113 24.3168 8.48008 23.7627 8.48008C23.0381 8.48008 22.42 8.6208 21.9085 8.90223C21.4055 9.18365 21.1583 9.56441 21.1668 10.0445C21.1583 10.417 21.3117 10.7398 21.6272 11.0129C21.9511 11.2861 22.5266 11.5054 23.3535 11.671L27.1387 12.3663C29.0994 12.7305 30.5572 13.3347 31.512 14.179C32.4754 15.0233 32.9613 16.1407 32.9698 17.5313C32.9613 18.8391 32.5606 19.9772 31.7678 20.9457C30.9835 21.9141 29.9093 22.6674 28.5453 23.2054C27.1813 23.7351 25.6212 24 23.865 24C21.0602 24 18.848 23.4413 17.2282 22.3238C15.617 21.1981 14.6962 19.6917 14.4661 17.8044L20.6425 17.6555C20.7789 18.3508 21.1327 18.8805 21.7039 19.2447C22.2751 19.6089 23.004 19.791 23.8906 19.791C24.6919 19.791 25.3441 19.6461 25.8471 19.3564C26.3501 19.0667 26.6058 18.6818 26.6144 18.2018C26.6058 17.7713 26.4098 17.4278 26.0261 17.1712C25.6425 16.9064 25.0415 16.6994 24.2231 16.5504L20.796 15.9172C18.8267 15.5696 17.3603 14.9281 16.397 13.9928C15.4337 13.0491 14.9563 11.8489 14.9648 10.3921C14.9563 9.11743 15.3058 8.02897 16.0134 7.12675C16.721 6.21625 17.7269 5.52095 19.0313 5.04087C20.3356 4.56079 21.8744 4.32075 23.6476 4.32075C26.3075 4.32075 28.4046 4.86291 29.9392 5.94723C31.4737 7.02328 32.3219 8.50491 32.4839 10.3921Z" fill="#1F2937"/>
<path d="M42.3016 12.7636V23.6399H36.0485V4.56906H41.9947V8.07036H42.2121C42.6469 6.90326 43.3886 5.98862 44.4372 5.32644C45.4858 4.65598 46.7347 4.32075 48.184 4.32075C49.565 4.32075 50.7628 4.62287 51.7773 5.22711C52.8003 5.82307 53.5932 6.65908 54.1558 7.73513C54.727 8.8029 55.0083 10.0528 54.9998 11.4847V23.6399H48.7466V12.6767C48.7552 11.6172 48.4781 10.7894 47.9154 10.1935C47.3613 9.59752 46.5898 9.29954 45.6009 9.29954C44.9444 9.29954 44.3647 9.44025 43.8617 9.72168C43.3673 9.99483 42.9837 10.388 42.7109 10.9012C42.4466 11.4144 42.3102 12.0352 42.3016 12.7636Z" fill="#1F2937"/>
</svg>
