<svg width="108" height="64" viewBox="0 0 108 64" fill="none" xmlns="http://www.w3.org/2000/svg">
<path d="M9.37337 4.83922V7.86374H0.666656V4.83922H9.37337ZM2.64332 1.36103H6.65311V14.8957C6.65311 15.2675 6.70959 15.5574 6.82254 15.7653C6.93549 15.9669 7.09237 16.1087 7.29317 16.1906C7.50025 16.2725 7.73871 16.3135 8.00854 16.3135C8.19679 16.3135 8.38504 16.2977 8.5733 16.2662C8.76155 16.2284 8.90588 16.2001 9.00628 16.1812L9.63693 19.1773C9.43612 19.2403 9.15374 19.3128 8.78979 19.3947C8.42583 19.4829 7.98343 19.5365 7.4626 19.5554C6.49623 19.5932 5.64909 19.464 4.92118 19.1679C4.19954 18.8717 3.63792 18.4117 3.23631 17.7879C2.83471 17.1641 2.63704 16.3765 2.64332 15.425V1.36103Z" fill="#3B82F6"/>
<path d="M16.3058 10.9639V19.3569H12.296V0H16.1928V7.40061H16.3623C16.6886 6.54366 17.2157 5.8726 17.9436 5.38742C18.6715 4.89593 19.5845 4.65019 20.6827 4.65019C21.6867 4.65019 22.5621 4.87073 23.3088 5.3118C24.0618 5.74658 24.6454 6.37354 25.0596 7.19268C25.48 8.00551 25.6871 8.97903 25.6808 10.1132V19.3569H21.671V10.8315C21.6773 9.93679 21.4514 9.24052 20.9933 8.74274C20.5415 8.24496 19.9077 7.99606 19.0919 7.99606C18.546 7.99606 18.0628 8.11263 17.6424 8.34577C17.2282 8.57891 16.9019 8.91917 16.6635 9.36655C16.4313 9.80762 16.3121 10.3401 16.3058 10.9639Z" fill="#3B82F6"/>
<path d="M35.4253 19.6404C33.9381 19.6404 32.658 19.338 31.5849 18.7331C30.5181 18.1219 29.6961 17.2586 29.1188 16.1434C28.5415 15.0218 28.2528 13.6954 28.2528 12.1642C28.2528 10.6709 28.5415 9.36024 29.1188 8.23235C29.6961 7.10446 30.5087 6.22546 31.5567 5.59535C32.6109 4.96525 33.8471 4.65019 35.2653 4.65019C36.2191 4.65019 37.107 4.80457 37.929 5.11332C38.7574 5.41577 39.479 5.8726 40.094 6.4838C40.7152 7.09501 41.1984 7.86374 41.5435 8.79C41.8886 9.70995 42.0612 10.7874 42.0612 12.0224V13.1283H29.853V10.6331H38.2867C38.2867 10.0534 38.1612 9.53983 37.9102 9.09245C37.6592 8.64507 37.3109 8.29536 36.8654 8.04332C36.4262 7.78498 35.9147 7.6558 35.3311 7.6558C34.7225 7.6558 34.1828 7.79758 33.7122 8.08113C33.2478 8.35837 32.8839 8.73329 32.6203 9.20587C32.3567 9.67215 32.2218 10.192 32.2156 10.7654V13.1377C32.2156 13.8561 32.3473 14.4767 32.6109 14.9997C32.8807 15.5227 33.2604 15.926 33.7498 16.2095C34.2393 16.4931 34.8197 16.6348 35.4912 16.6348C35.9367 16.6348 36.3446 16.5718 36.7148 16.4458C37.085 16.3198 37.4019 16.1307 37.6655 15.8787C37.929 15.6267 38.1298 15.3179 38.2679 14.9524L41.9765 15.1982C41.7882 16.0929 41.4023 16.8743 40.8187 17.5422C40.2414 18.2038 39.4947 18.7205 38.5785 19.0923C37.6686 19.4577 36.6175 19.6404 35.4253 19.6404Z" fill="#3B82F6"/>
<path d="M13.7126 31.1588L10.0417 31.3856C9.97892 31.0706 9.844 30.787 9.63693 30.535C9.42985 30.2767 9.15688 30.0719 8.81802 29.9206C8.48544 29.7631 8.08697 29.6844 7.62262 29.6844C7.00138 29.6844 6.47741 29.8167 6.0507 30.0813C5.62399 30.3397 5.41064 30.6862 5.41064 31.121C5.41064 31.4676 5.54869 31.7606 5.8248 32C6.1009 32.2394 6.57467 32.4316 7.24611 32.5765L9.86283 33.1058C11.2685 33.3957 12.3164 33.862 13.0067 34.5047C13.6969 35.1474 14.0421 35.9917 14.0421 37.0377C14.0421 37.9892 13.7628 38.8241 13.2043 39.5424C12.6521 40.2607 11.8928 40.8215 10.9265 41.2248C9.96637 41.6217 8.85881 41.8202 7.60379 41.8202C5.68988 41.8202 4.16503 41.4201 3.02924 40.6199C1.89972 39.8133 1.23769 38.7169 1.04316 37.3307L4.98707 37.1228C5.1063 37.7088 5.39495 38.1562 5.85303 38.4649C6.31112 38.7674 6.89784 38.9186 7.6132 38.9186C8.31602 38.9186 8.88078 38.7831 9.30748 38.5122C9.74047 38.2349 9.96009 37.8789 9.96637 37.4441C9.96009 37.0787 9.80635 36.7794 9.50515 36.5462C9.20394 36.3068 8.73959 36.1241 8.11207 35.998L5.60831 35.4971C4.19641 35.2135 3.14533 34.7221 2.45506 34.0226C1.77108 33.3232 1.42908 32.4316 1.42908 31.3478C1.42908 30.4153 1.68009 29.6119 2.1821 28.9377C2.69038 28.2635 3.4026 27.7436 4.31877 27.3782C5.24121 27.0127 6.32053 26.83 7.55673 26.83C9.38278 26.83 10.8198 27.2175 11.8677 27.9925C12.9219 28.7675 13.5369 29.823 13.7126 31.1588Z" fill="#3B82F6"/>
<path d="M23.0994 41.8202C21.6373 41.8202 20.3729 41.5083 19.3061 40.8845C18.2456 40.2544 17.4267 39.3786 16.8494 38.257C16.2721 37.1291 15.9834 35.8216 15.9834 34.3345C15.9834 32.8349 16.2721 31.5243 16.8494 30.4027C17.4267 29.2748 18.2456 28.3989 19.3061 27.7751C20.3729 27.145 21.6373 26.83 23.0994 26.83C24.5615 26.83 25.8228 27.145 26.8833 27.7751C27.95 28.3989 28.7721 29.2748 29.3494 30.4027C29.9267 31.5243 30.2154 32.8349 30.2154 34.3345C30.2154 35.8216 29.9267 37.1291 29.3494 38.257C28.7721 39.3786 27.95 40.2544 26.8833 40.8845C25.8228 41.5083 24.5615 41.8202 23.0994 41.8202ZM23.1182 38.7012C23.7834 38.7012 24.3387 38.5122 24.7843 38.1341C25.2298 37.7497 25.5655 37.2267 25.7914 36.5651C26.0236 35.9035 26.1397 35.1505 26.1397 34.3062C26.1397 33.4618 26.0236 32.7089 25.7914 32.0473C25.5655 31.3856 25.2298 30.8627 24.7843 30.4783C24.3387 30.0939 23.7834 29.9017 23.1182 29.9017C22.4468 29.9017 21.882 30.0939 21.4239 30.4783C20.9721 30.8627 20.6301 31.3856 20.398 32.0473C20.1721 32.7089 20.0591 33.4618 20.0591 34.3062C20.0591 35.1505 20.1721 35.9035 20.398 36.5651C20.6301 37.2267 20.9721 37.7497 21.4239 38.1341C21.882 38.5122 22.4468 38.7012 23.1182 38.7012Z" fill="#3B82F6"/>
<path d="M39.3551 41.8202C37.8741 41.8202 36.6003 41.5052 35.5335 40.8751C34.473 40.2387 33.6573 39.3565 33.0862 38.2286C32.5215 37.1007 32.2391 35.8027 32.2391 34.3345C32.2391 32.8475 32.5246 31.5432 33.0956 30.4216C33.6729 29.2937 34.4919 28.4147 35.5523 27.7846C36.6128 27.1482 37.8741 26.83 39.3362 26.83C40.5975 26.83 41.702 27.06 42.6495 27.5199C43.597 27.9799 44.3469 28.6258 44.8991 29.4575C45.4513 30.2893 45.7557 31.2659 45.8122 32.3875H42.0283C41.9216 31.6629 41.6392 31.08 41.1811 30.639C40.7293 30.1916 40.1363 29.9679 39.4021 29.9679C38.7809 29.9679 38.2381 30.138 37.7737 30.4783C37.3157 30.8122 36.958 31.3006 36.7007 31.9433C36.4434 32.586 36.3148 33.3642 36.3148 34.2778C36.3148 35.2041 36.4403 35.9917 36.6913 36.6407C36.9486 37.2897 37.3094 37.7844 37.7737 38.1246C38.2381 38.4649 38.7809 38.635 39.4021 38.635C39.8602 38.635 40.2712 38.5405 40.6352 38.3515C41.0054 38.1625 41.3098 37.8884 41.5482 37.5292C41.7929 37.1637 41.953 36.7258 42.0283 36.2154H45.8122C45.7494 37.3244 45.4482 38.3011 44.9085 39.1454C44.3751 39.9835 43.6378 40.6388 42.6966 41.1114C41.7553 41.5839 40.6415 41.8202 39.3551 41.8202Z" fill="#3B82F6"/>
<path d="M48.3795 41.5367V27.019H52.3893V41.5367H48.3795ZM50.3938 25.1476C49.7976 25.1476 49.2862 24.9491 48.8595 24.5521C48.4391 24.1489 48.2289 23.6668 48.2289 23.106C48.2289 22.5515 48.4391 22.0758 48.8595 21.6788C49.2862 21.2756 49.7976 21.0739 50.3938 21.0739C50.9899 21.0739 51.4982 21.2756 51.9186 21.6788C52.3453 22.0758 52.5587 22.5515 52.5587 23.106C52.5587 23.6668 52.3453 24.1489 51.9186 24.5521C51.4982 24.9491 50.9899 25.1476 50.3938 25.1476Z" fill="#3B82F6"/>
<path d="M59.7241 41.8108C58.8016 41.8108 57.9796 41.6501 57.258 41.3287C56.5363 41.0011 55.9653 40.5191 55.5448 39.8826C55.1307 39.2399 54.9236 38.4397 54.9236 37.4819C54.9236 36.6754 55.0711 35.998 55.366 35.4498C55.6609 34.9016 56.0625 34.4606 56.5708 34.1266C57.0791 33.7927 57.6564 33.5406 58.3028 33.3705C58.9554 33.2004 59.6394 33.0806 60.3547 33.0113C61.1956 32.9231 61.8733 32.8412 62.3879 32.7656C62.9024 32.6837 63.2758 32.5639 63.508 32.4064C63.7401 32.2489 63.8562 32.0158 63.8562 31.707V31.6503C63.8562 31.0517 63.668 30.5886 63.2915 30.2609C62.9212 29.9332 62.3941 29.7694 61.7101 29.7694C60.9885 29.7694 60.4143 29.9301 59.9876 30.2515C59.5609 30.5665 59.2785 30.9635 59.1405 31.4424L55.4319 31.1399C55.6202 30.2578 55.9904 29.4953 56.5426 28.8526C57.0948 28.2036 57.807 27.7058 58.6793 27.3593C59.5578 27.0064 60.5743 26.83 61.729 26.83C62.5322 26.83 63.3009 26.9245 64.0351 27.1135C64.7755 27.3026 65.4313 27.5955 66.0023 27.9925C66.5796 28.3895 67.0346 28.8999 67.3672 29.5237C67.6997 30.1412 67.866 30.8816 67.866 31.7448V41.5367H64.0633V39.5235H63.9504C63.7182 39.9772 63.4076 40.3773 63.0185 40.7238C62.6294 41.0641 62.1619 41.3319 61.616 41.5272C61.0701 41.7163 60.4394 41.8108 59.7241 41.8108ZM60.8724 39.032C61.4623 39.032 61.9831 38.9154 62.4349 38.6823C62.8867 38.4428 63.2413 38.1215 63.4985 37.7182C63.7558 37.315 63.8845 36.8581 63.8845 36.3477V34.8071C63.759 34.889 63.5864 34.9647 63.3668 35.034C63.1534 35.097 62.9118 35.1568 62.642 35.2135C62.3722 35.264 62.1023 35.3112 61.8325 35.3553C61.5627 35.3931 61.3179 35.4278 61.0983 35.4593C60.6277 35.5286 60.2167 35.6389 59.8653 35.7901C59.5139 35.9413 59.2409 36.1461 59.0464 36.4045C58.8518 36.6565 58.7546 36.9715 58.7546 37.3496C58.7546 37.8978 58.9522 38.3168 59.3476 38.6067C59.7492 38.8902 60.2575 39.032 60.8724 39.032Z" fill="#3B82F6"/>
<path d="M74.9867 22.1798V41.5367H70.9769V22.1798H74.9867Z" fill="#3B82F6"/>
<path d="M5.69302 55.3234V63.7164H1.68322V49.1988H5.50477V51.7602H5.67419C5.99423 50.9158 6.53075 50.2479 7.28376 49.7564C8.03677 49.2586 8.9498 49.0098 10.0228 49.0098C11.0269 49.0098 11.9022 49.2303 12.649 49.6714C13.3957 50.1124 13.9762 50.7425 14.3903 51.5617C14.8045 52.3745 15.0116 53.3449 15.0116 54.4728V63.7164H11.0018V55.1911C11.008 54.3026 10.7821 53.6095 10.3241 53.1117C9.86597 52.6077 9.23532 52.3556 8.43211 52.3556C7.89245 52.3556 7.41554 52.4722 7.00138 52.7053C6.5935 52.9385 6.27347 53.2787 6.04129 53.7261C5.81538 54.1672 5.69929 54.6996 5.69302 55.3234Z" fill="#3B82F6"/>
<path d="M24.7607 64C23.2735 64 21.9934 63.6975 20.9204 63.0926C19.8536 62.4814 19.0315 61.6182 18.4542 60.5029C17.8769 59.3813 17.5883 58.0549 17.5883 56.5238C17.5883 55.0304 17.8769 53.7198 18.4542 52.5919C19.0315 51.464 19.8442 50.585 20.8921 49.9549C21.9463 49.3248 23.1825 49.0098 24.6007 49.0098C25.5545 49.0098 26.4425 49.1641 27.2645 49.4729C28.0928 49.7753 28.8144 50.2322 29.4294 50.8434C30.0506 51.4546 30.5338 52.2233 30.879 53.1496C31.2241 54.0695 31.3967 55.147 31.3967 56.382V57.4878H19.1884V54.9926H27.6222C27.6222 54.4129 27.4967 53.8994 27.2457 53.452C26.9947 53.0046 26.6464 52.6549 26.2009 52.4029C25.7616 52.1445 25.2502 52.0154 24.6666 52.0154C24.0579 52.0154 23.5183 52.1571 23.0476 52.4407C22.5833 52.7179 22.2193 53.0928 21.9557 53.5654C21.6922 54.0317 21.5573 54.5515 21.551 55.1249V57.4973C21.551 58.2156 21.6828 58.8363 21.9463 59.3593C22.2162 59.8822 22.5958 60.2855 23.0853 60.5691C23.5747 60.8526 24.1552 60.9944 24.8266 60.9944C25.2721 60.9944 25.68 60.9314 26.0503 60.8054C26.4205 60.6793 26.7374 60.4903 27.0009 60.2383C27.2645 59.9862 27.4653 59.6775 27.6033 59.312L31.3119 59.5577C31.1237 60.4525 30.7378 61.2338 30.1542 61.9017C29.5769 62.5634 28.8301 63.08 27.914 63.4518C27.0041 63.8173 25.953 64 24.7607 64Z" fill="#3B82F6"/>
<path d="M41.7035 49.1988V52.2233H32.9968V49.1988H41.7035ZM34.9735 45.7206H38.9833V59.2553C38.9833 59.6271 39.0397 59.9169 39.1527 60.1248C39.2656 60.3265 39.4225 60.4683 39.6233 60.5502C39.8304 60.6321 40.0689 60.673 40.3387 60.673C40.5269 60.673 40.7152 60.6573 40.9034 60.6258C41.0917 60.588 41.236 60.5596 41.3364 60.5407L41.9671 63.5369C41.7663 63.5999 41.4839 63.6723 41.1199 63.7543C40.756 63.8425 40.3136 63.896 39.7928 63.9149C38.8264 63.9527 37.9792 63.8236 37.2513 63.5274C36.5297 63.2313 35.9681 62.7713 35.5665 62.1475C35.1649 61.5237 34.9672 60.736 34.9735 59.7846V45.7206Z" fill="#3B82F6"/>
<path d="M47.1676 63.7164L43.2331 49.1988H47.2899L49.5302 58.9528H49.6619L51.9963 49.1988H55.9778L58.3498 58.8961H58.4722L60.6748 49.1988H64.7222L60.7971 63.7164H56.552L54.0671 54.5862H53.8882L51.4033 63.7164H47.1676Z" fill="#3B82F6"/>
<path d="M73.0312 64C71.5691 64 70.3047 63.6881 69.2379 63.0643C68.1774 62.4342 67.3585 61.5583 66.7812 60.4367C66.2039 59.3089 65.9153 58.0014 65.9153 56.5143C65.9153 55.0147 66.2039 53.704 66.7812 52.5825C67.3585 51.4546 68.1774 50.5787 69.2379 49.9549C70.3047 49.3248 71.5691 49.0098 73.0312 49.0098C74.4933 49.0098 75.7546 49.3248 76.8151 49.9549C77.8819 50.5787 78.7039 51.4546 79.2812 52.5825C79.8585 53.704 80.1472 55.0147 80.1472 56.5143C80.1472 58.0014 79.8585 59.3089 79.2812 60.4367C78.7039 61.5583 77.8819 62.4342 76.8151 63.0643C75.7546 63.6881 74.4933 64 73.0312 64ZM73.05 60.881C73.7152 60.881 74.2706 60.6919 74.7161 60.3139C75.1616 59.9295 75.4973 59.4065 75.7232 58.7449C75.9554 58.0833 76.0715 57.3303 76.0715 56.486C76.0715 55.6416 75.9554 54.8886 75.7232 54.227C75.4973 53.5654 75.1616 53.0424 74.7161 52.6581C74.2706 52.2737 73.7152 52.0815 73.05 52.0815C72.3786 52.0815 71.8139 52.2737 71.3558 52.6581C70.904 53.0424 70.562 53.5654 70.3298 54.227C70.1039 54.8886 69.9909 55.6416 69.9909 56.486C69.9909 57.3303 70.1039 58.0833 70.3298 58.7449C70.562 59.4065 70.904 59.9295 71.3558 60.3139C71.8139 60.6919 72.3786 60.881 73.05 60.881Z" fill="#3B82F6"/>
<path d="M82.7545 63.7164V49.1988H86.6419V51.7318H86.7925C87.0561 50.8308 87.4985 50.1502 88.1197 49.6903C88.741 49.224 89.4563 48.9908 90.2658 48.9908C90.4666 48.9908 90.6831 49.0034 90.9153 49.0287C91.1475 49.0539 91.3514 49.0885 91.5271 49.1326V52.7053C91.3389 52.6486 91.0784 52.5982 90.7459 52.5541C90.4133 52.51 90.1089 52.4879 89.8328 52.4879C89.243 52.4879 88.7159 52.6171 88.2515 52.8755C87.7934 53.1275 87.4295 53.4804 87.1596 53.934C86.8961 54.3877 86.7643 54.9107 86.7643 55.503V63.7164H82.7545Z" fill="#3B82F6"/>
<path d="M97.2335 59.5388L97.243 54.7091H97.8265L102.458 49.1988H107.06L100.839 56.4954H99.8879L97.2335 59.5388ZM93.6002 63.7164V44.3596H97.61V63.7164H93.6002ZM102.636 63.7164L98.3819 57.3933L101.055 54.5484L107.333 63.7164H102.636Z" fill="#3B82F6"/>
</svg>
